Rubik-BlackItalic.ufo
<glyph name="hyphen" format="1">
  <advance width="469"/>
  <unicode hex="002D"/>
  <outline>
    <contour>
      <point x="93" y="398" type="line" smooth="yes" name="hr00"/>
      <point x="78" y="398"/>
      <point x="64" y="386"/>
      <point x="60" y="371" type="curve" smooth="yes"/>
      <point x="30" y="229" type="line" smooth="yes"/>
      <point x="27" y="214"/>
      <point x="36" y="202"/>
      <point x="51" y="202" type="curve" smooth="yes"/>
      <point x="376" y="202" type="line" smooth="yes"/>
      <point x="391" y="202"/>
      <point x="406" y="214"/>
      <point x="409" y="229" type="curve" smooth="yes"/>
      <point x="439" y="371" type="line" smooth="yes"/>
      <point x="443" y="386"/>
      <point x="433" y="398"/>
      <point x="418" y="398" type="curve" smooth="yes"/>
    </contour>
  </outline>
</glyph>
<glyph name="N" format="1">
  <advance width="739"/>
  <unicode hex="004E"/>
  <outline>
    <contour>
      <point x="562" y="700" type="line" smooth="yes" name="hr00"/>
      <point x="547" y="700"/>
      <point x="533" y="688"/>
      <point x="530" y="673" type="curve" smooth="yes"/>
      <point x="472" y="400" type="line"/>
      <point x="361" y="677" type="line" smooth="yes"/>
      <point x="359" y="684"/>
      <point x="352" y="700"/>
      <point x="325" y="700" type="curve" smooth="yes"/>
      <point x="167" y="700" type="line" smooth="yes"/>
      <point x="152" y="700"/>
      <point x="138" y="688"/>
      <point x="135" y="673" type="curve" smooth="yes"/>
      <point x="-3" y="27" type="line" smooth="yes"/>
      <point x="-6" y="12"/>
      <point x="4" y="0"/>
      <point x="19" y="0" type="curve" smooth="yes"/>
      <point x="200" y="0" type="line" smooth="yes"/>
      <point x="215" y="0"/>
      <point x="229" y="12"/>
      <point x="232" y="27" type="curve" smooth="yes"/>
      <point x="286" y="278" type="line"/>
      <point x="400" y="23" type="line" smooth="yes"/>
      <point x="403" y="17"/>
      <point x="410" y="0"/>
      <point x="437" y="0" type="curve" smooth="yes"/>
      <point x="595" y="0" type="line" smooth="yes"/>
      <point x="610" y="0"/>
      <point x="624" y="12"/>
      <point x="627" y="27" type="curve" smooth="yes"/>
      <point x="765" y="673" type="line" smooth="yes"/>
      <point x="768" y="688"/>
      <point x="758" y="700"/>
      <point x="743" y="700" type="curve" smooth="yes"/>
    </contour>
  </outline>
</glyph>
<glyph name="asciicircum" format="1">
  <advance width="490"/>
  <unicode hex="005E"/>
  <outline>
    <contour>
      <point x="286" y="765" type="line" smooth="yes" name="hr00"/>
      <point x="271" y="765"/>
      <point x="261" y="760"/>
      <point x="245" y="746" type="curve" smooth="yes"/>
      <point x="107" y="624" type="line" smooth="yes"/>
      <point x="103" y="621"/>
      <point x="100" y="616"/>
      <point x="99" y="611" type="curve" smooth="yes"/>
      <point x="97" y="601"/>
      <point x="102" y="595"/>
      <point x="112" y="595" type="curve" smooth="yes"/>
      <point x="186" y="595" type="line" smooth="yes"/>
      <point x="199" y="595"/>
      <point x="212" y="595"/>
      <point x="227" y="602" type="curve" smooth="yes"/>
      <point x="328" y="644" type="line"/>
      <point x="411" y="602" type="line" smooth="yes"/>
      <point x="424" y="595"/>
      <point x="437" y="595"/>
      <point x="450" y="595" type="curve" smooth="yes"/>
      <point x="508" y="595" type="line" smooth="yes"/>
      <point x="518" y="595"/>
      <point x="525" y="601"/>
      <point x="527" y="611" type="curve" smooth="yes"/>
      <point x="528" y="616"/>
      <point x="527" y="621"/>
      <point x="525" y="624" type="curve" smooth="yes"/>
      <point x="439" y="746" type="line" smooth="yes"/>
      <point x="429" y="760"/>
      <point x="421" y="765"/>
      <point x="406" y="765" type="curve" smooth="yes"/>
    </contour>
  </outline>
</glyph>
<glyph name="y" format="1">
  <advance width="646"/>
  <unicode hex="0079"/>
  <outline>
    <contour>
      <point x="55" y="489" type="line" smooth="yes" name="hr00"/>
      <point x="52" y="505"/>
      <point x="64" y="520"/>
      <point x="86" y="520" type="curve" smooth="yes"/>
      <point x="245" y="520" type="line" smooth="yes"/>
      <point x="265" y="520"/>
      <point x="270" y="507"/>
      <point x="272" y="496" type="curve" smooth="yes"/>
      <point x="311" y="268" type="line"/>
      <point x="449" y="496" type="line" smooth="yes"/>
      <point x="456" y="508"/>
      <point x="468" y="520"/>
      <point x="488" y="520" type="curve" smooth="yes"/>
      <point x="665" y="520" type="line" smooth="yes"/>
      <point x="684" y="520"/>
      <point x="687" y="502"/>
      <point x="680" y="489" type="curve"/>
      <point x="259" y="-166" type="line" smooth="yes"/>
      <point x="252" y="-178"/>
      <point x="239" y="-190"/>
      <point x="219" y="-190" type="curve" smooth="yes"/>
      <point x="45" y="-190" type="line" smooth="yes"/>
      <point x="29" y="-190"/>
      <point x="22" y="-173"/>
      <point x="31" y="-159" type="curve" smooth="yes"/>
      <point x="152" y="33" type="line"/>
    </contour>
  </outline>
</glyph>
<glyph name="paragraph" format="1">
  <advance width="712"/>
  <unicode hex="00B6"/>
  <outline>
    <contour>
      <point x="68" y="503" type="curve" smooth="yes" name="hr00"/>
      <point x="45" y="394"/>
      <point x="115" y="306"/>
      <point x="224" y="306" type="curve"/>
      <point x="143" y="-73" type="line" smooth="yes"/>
      <point x="140" y="-88"/>
      <point x="149" y="-100"/>
      <point x="164" y="-100" type="curve" smooth="yes"/>
      <point x="285" y="-100" type="line" smooth="yes"/>
      <point x="300" y="-100"/>
      <point x="315" y="-88"/>
      <point x="318" y="-73" type="curve" smooth="yes"/>
      <point x="450" y="550" type="line"/>
      <point x="529" y="550" type="line"/>
      <point x="397" y="-73" type="line" smooth="yes"/>
      <point x="394" y="-88"/>
      <point x="403" y="-100"/>
      <point x="418" y="-100" type="curve" smooth="yes"/>
      <point x="539" y="-100" type="line" smooth="yes"/>
      <point x="554" y="-100"/>
      <point x="569" y="-88"/>
      <point x="572" y="-73" type="curve" smooth="yes"/>
      <point x="731" y="673" type="line" smooth="yes"/>
      <point x="734" y="688"/>
      <point x="724" y="700"/>
      <point x="709" y="700" type="curve" smooth="yes"/>
      <point x="307" y="700" type="line" smooth="yes"/>
      <point x="198" y="700"/>
      <point x="92" y="612"/>
    </contour>
  </outline>
</glyph>
<glyph name="dotaccent" format="1">
  <advance width="237"/>
  <unicode hex="02D9"/>
  <outline>
    <contour>
      <point x="87" y="772" type="line" smooth="yes" name="hr00"/>
      <point x="74" y="772"/>
      <point x="61" y="762"/>
      <point x="59" y="749" type="curve" smooth="yes"/>
      <point x="31" y="618" type="line" smooth="yes"/>
      <point x="28" y="605"/>
      <point x="36" y="595"/>
      <point x="49" y="595" type="curve" smooth="yes"/>
      <point x="180" y="595" type="line" smooth="yes"/>
      <point x="193" y="595"/>
      <point x="205" y="605"/>
      <point x="208" y="618" type="curve" smooth="yes"/>
      <point x="236" y="749" type="line" smooth="yes"/>
      <point x="238" y="762"/>
      <point x="231" y="772"/>
      <point x="218" y="772" type="curve" smooth="yes"/>
    </contour>
  </outline>
</glyph>
<glyph name="afii10025" format="1">
  <advance width="701"/>
  <unicode hex="0417"/>
  <outline>
    <contour>
      <point x="442" y="470" type="curve" smooth="yes"/>
      <point x="437" y="445"/>
      <point x="418" y="438"/>
      <point x="371" y="438" type="curve" smooth="yes"/>
      <point x="270" y="438" type="line" smooth="yes"/>
      <point x="255" y="438"/>
      <point x="240" y="424"/>
      <point x="236" y="409" type="curve" smooth="yes"/>
      <point x="211" y="289" type="line" smooth="yes"/>
      <point x="208" y="274"/>
      <point x="217" y="260"/>
      <point x="232" y="260" type="curve" smooth="yes"/>
      <point x="333" y="260" type="line" smooth="yes"/>
      <point x="380" y="260"/>
      <point x="401" y="252"/>
      <point x="396" y="227" type="curve" smooth="yes"/>
      <point x="391" y="203"/>
      <point x="367" y="183"/>
      <point x="317" y="183" type="curve" smooth="yes"/>
      <point x="275" y="183"/>
      <point x="264" y="192"/>
      <point x="256" y="203" type="curve" smooth="yes"/>
      <point x="249" y="212"/>
      <point x="243" y="219"/>
      <point x="225" y="219" type="curve" smooth="yes" name="hr01"/>
      <point x="24" y="219" type="line" smooth="yes"/>
      <point x="12" y="219"/>
      <point x="0" y="209"/>
      <point x="-3" y="197" type="curve" smooth="yes"/>
      <point x="-19" y="118"/>
      <point x="67" y="-10"/>
      <point x="298" y="-10" type="curve" smooth="yes"/>
      <point x="507" y="-10"/>
      <point x="622" y="72"/>
      <point x="648" y="195" type="curve" smooth="yes"/>
      <point x="657" y="239"/>
      <point x="651" y="299"/>
      <point x="580" y="332" type="curve"/>
      <point x="664" y="370"/>
      <point x="693" y="432"/>
      <point x="703" y="476" type="curve" smooth="yes"/>
      <point x="729" y="599"/>
      <point x="590" y="710"/>
      <point x="411" y="710" type="curve" smooth="yes"/>
      <point x="160" y="710"/>
      <point x="84" y="580"/>
      <point x="67" y="501" type="curve" smooth="yes"/>
      <point x="64" y="489"/>
      <point x="72" y="479"/>
      <point x="84" y="479" type="curve" smooth="yes"/>
      <point x="285" y="479" type="line" smooth="yes"/>
      <point x="303" y="479"/>
      <point x="312" y="486"/>
      <point x="323" y="495" type="curve" smooth="yes"/>
      <point x="336" y="506"/>
      <point x="346" y="515"/>
      <point x="388" y="515" type="curve" smooth="yes" name="hr02"/>
      <point x="438" y="515"/>
      <point x="448" y="494"/>
    </contour>
  </outline>
</glyph>
<glyph name="afii10076" format="1">
  <advance width="649"/>
  <unicode hex="043A"/>
  <outline>
    <contour>
      <point x="316" y="493" type="line" smooth="yes" name="hr00"/>
      <point x="319" y="508"/>
      <point x="310" y="520"/>
      <point x="295" y="520" type="curve" smooth="yes"/>
      <point x="120" y="520" type="line" smooth="yes"/>
      <point x="105" y="520"/>
      <point x="90" y="508"/>
      <point x="87" y="493" type="curve" smooth="yes"/>
      <point x="-12" y="27" type="line" smooth="yes"/>
      <point x="-15" y="12"/>
      <point x="-5" y="0"/>
      <point x="10" y="0" type="curve" smooth="yes"/>
      <point x="185" y="0" type="line" smooth="yes"/>
      <point x="200" y="0"/>
      <point x="214" y="12"/>
      <point x="217" y="27" type="curve" smooth="yes"/>
      <point x="252" y="185" type="line"/>
      <point x="329" y="17" type="line" smooth="yes"/>
      <point x="330" y="14"/>
      <point x="337" y="0"/>
      <point x="357" y="0" type="curve" smooth="yes"/>
      <point x="555" y="0" type="line" smooth="yes"/>
      <point x="580" y="0"/>
      <point x="590" y="21"/>
      <point x="582" y="37" type="curve" smooth="yes"/>
      <point x="476" y="259" type="line"/>
      <point x="666" y="481" type="line" smooth="yes"/>
      <point x="681" y="499"/>
      <point x="680" y="520"/>
      <point x="655" y="520" type="curve" smooth="yes"/>
      <point x="446" y="520" type="line" smooth="yes"/>
      <point x="428" y="520"/>
      <point x="417" y="508"/>
      <point x="413" y="503" type="curve" smooth="yes"/>
      <point x="283" y="336" type="line"/>
    </contour>
  </outline>
</glyph>
<glyph name="afii10081" format="1">
  <advance width="663"/>
  <unicode hex="043F"/>
  <outline>
    <contour>
      <point x="529" y="0" type="line" smooth="yes" name="hr00"/>
      <point x="544" y="0"/>
      <point x="558" y="12"/>
      <point x="561" y="27" type="curve" smooth="yes"/>
      <point x="660" y="493" type="line" smooth="yes"/>
      <point x="663" y="508"/>
      <point x="654" y="520"/>
      <point x="639" y="520" type="curve" smooth="yes"/>
      <point x="120" y="520" type="line" smooth="yes"/>
      <point x="105" y="520"/>
      <point x="90" y="508"/>
      <point x="87" y="493" type="curve" smooth="yes"/>
      <point x="-12" y="27" type="line" smooth="yes"/>
      <point x="-15" y="12"/>
      <point x="-5" y="0"/>
      <point x="10" y="0" type="curve" smooth="yes"/>
      <point x="189" y="0" type="line" smooth="yes"/>
      <point x="204" y="0"/>
      <point x="218" y="12"/>
      <point x="221" y="27" type="curve" smooth="yes"/>
      <point x="289" y="345" type="line"/>
      <point x="396" y="345" type="line"/>
      <point x="328" y="27" type="line" smooth="yes"/>
      <point x="325" y="12"/>
      <point x="335" y="0"/>
      <point x="350" y="0" type="curve" smooth="yes"/>
    </contour>
  </outline>
</glyph>
<glyph name="afii10089" format="1">
  <advance width="642"/>
  <unicode hex="0447"/>
  <outline>
    <contour>
      <point x="353" y="319" type="line" name="hr00"/>
      <point x="311" y="319" type="line" smooth="yes"/>
      <point x="277" y="319"/>
      <point x="269" y="328"/>
      <point x="277" y="364" type="curve" smooth="yes"/>
      <point x="304" y="493" type="line" smooth="yes"/>
      <point x="307" y="508"/>
      <point x="298" y="520"/>
      <point x="283" y="520" type="curve" smooth="yes"/>
      <point x="97" y="520" type="line" smooth="yes"/>
      <point x="82" y="520"/>
      <point x="67" y="508"/>
      <point x="64" y="493" type="curve" smooth="yes"/>
      <point x="35" y="354" type="line" smooth="yes"/>
      <point x="-1" y="184"/>
      <point x="129" y="120"/>
      <point x="279" y="120" type="curve" smooth="yes"/>
      <point x="311" y="120" type="line"/>
      <point x="291" y="27" type="line" smooth="yes"/>
      <point x="288" y="12"/>
      <point x="298" y="0"/>
      <point x="313" y="0" type="curve" smooth="yes"/>
      <point x="508" y="0" type="line" smooth="yes"/>
      <point x="523" y="0"/>
      <point x="537" y="12"/>
      <point x="540" y="27" type="curve" smooth="yes"/>
      <point x="639" y="493" type="line" smooth="yes"/>
      <point x="642" y="508"/>
      <point x="633" y="520"/>
      <point x="618" y="520" type="curve" smooth="yes"/>
      <point x="423" y="520" type="line" smooth="yes"/>
      <point x="408" y="520"/>
      <point x="393" y="508"/>
      <point x="390" y="493" type="curve" smooth="yes"/>
    </contour>
  </outline>
</glyph>
<glyph name="afii10050" format="1">
  <advance width="626"/>
  <unicode hex="0490"/>
  <outline>
    <contour>
      <point x="628" y="495" type="line" name="hr00"/>
      <point x="643" y="495"/>
      <point x="657" y="507"/>
      <point x="660" y="522" type="curve" smooth="yes"/>
      <point x="716" y="783" type="line" smooth="yes"/>
      <point x="719" y="798"/>
      <point x="710" y="810"/>
      <point x="695" y="810" type="curve" smooth="yes"/>
      <point x="534" y="810" type="line" smooth="yes"/>
      <point x="519" y="810"/>
      <point x="504" y="798"/>
      <point x="501" y="783" type="curve" smooth="yes"/>
      <point x="483" y="700" type="line"/>
      <point x="167" y="700" type="line" smooth="yes"/>
      <point x="152" y="700"/>
      <point x="138" y="688"/>
      <point x="135" y="673" type="curve" smooth="yes"/>
      <point x="-3" y="27" type="line" smooth="yes"/>
      <point x="-6" y="12"/>
      <point x="4" y="0"/>
      <point x="19" y="0" type="curve" smooth="yes"/>
      <point x="219" y="0" type="line" smooth="yes"/>
      <point x="234" y="0"/>
      <point x="248" y="12"/>
      <point x="251" y="27" type="curve" smooth="yes"/>
      <point x="351" y="495" type="line"/>
    </contour>
  </outline>
</glyph>
<glyph name="alefhebrew" format="1">
  <advance width="621"/>
  <unicode hex="05D0"/>
  <outline>
    <contour>
      <point x="313" y="23" type="line" smooth="yes" name="hr00"/>
      <point x="315" y="18"/>
      <point x="324" y="0"/>
      <point x="350" y="0" type="curve" smooth="yes"/>
      <point x="507" y="0" type="line" smooth="yes"/>
      <point x="524" y="0"/>
      <point x="540" y="18"/>
      <point x="533" y="33" type="curve" smooth="yes"/>
      <point x="458" y="204" type="line"/>
      <point x="563" y="236"/>
      <point x="591" y="349"/>
      <point x="607" y="427" type="curve" smooth="yes"/>
      <point x="632" y="542" type="line" smooth="yes"/>
      <point x="635" y="557"/>
      <point x="626" y="571"/>
      <point x="611" y="571" type="curve" smooth="yes"/>
      <point x="462" y="571" type="line" smooth="yes"/>
      <point x="447" y="571"/>
      <point x="432" y="559"/>
      <point x="429" y="542" type="curve" smooth="yes"/>
      <point x="405" y="431" type="line" smooth="yes"/>
      <point x="401" y="410"/>
      <point x="395" y="390"/>
      <point x="384" y="376" type="curve"/>
      <point x="312" y="546" type="line"/>
      <point x="308" y="553"/>
      <point x="301" y="571"/>
      <point x="275" y="571" type="curve" smooth="yes"/>
      <point x="118" y="571" type="line" smooth="yes"/>
      <point x="101" y="571"/>
      <point x="86" y="553"/>
      <point x="92" y="538" type="curve" smooth="yes"/>
      <point x="153" y="390" type="line"/>
      <point x="56" y="345"/>
      <point x="32" y="263"/>
      <point x="5" y="136" type="curve" smooth="yes"/>
      <point x="-17" y="29" type="line"/>
      <point x="-21" y="14"/>
      <point x="-11" y="0"/>
      <point x="4" y="0" type="curve" smooth="yes"/>
      <point x="143" y="0" type="line" smooth="yes"/>
      <point x="158" y="0"/>
      <point x="172" y="12"/>
      <point x="176" y="29" type="curve" smooth="yes"/>
      <point x="199" y="140" type="line" smooth="yes"/>
      <point x="204" y="163"/>
      <point x="211" y="202"/>
      <point x="230" y="223" type="curve"/>
    </contour>
  </outline>
</glyph>
<glyph name="kafhebrew" format="1">
  <advance width="537"/>
  <unicode hex="05DB"/>
  <outline>
    <contour>
      <point x="298" y="311" type="curve" smooth="yes" name="hr00"/>
      <point x="295" y="291"/>
      <point x="292" y="280"/>
      <point x="287" y="260" type="curve" smooth="yes"/>
      <point x="273" y="210"/>
      <point x="236" y="185"/>
      <point x="187" y="185" type="curve" smooth="yes"/>
      <point x="40" y="185" type="line" smooth="yes"/>
      <point x="25" y="185"/>
      <point x="10" y="173"/>
      <point x="7" y="158" type="curve" smooth="yes"/>
      <point x="-21" y="27" type="line" smooth="yes"/>
      <point x="-24" y="12"/>
      <point x="-14" y="0"/>
      <point x="1" y="0" type="curve" smooth="yes"/>
      <point x="173" y="0" type="line" smooth="yes"/>
      <point x="404" y="0"/>
      <point x="456" y="101"/>
      <point x="499" y="254" type="curve" smooth="yes"/>
      <point x="505" y="274"/>
      <point x="506" y="279"/>
      <point x="509" y="299" type="curve" smooth="yes"/>
      <point x="533" y="453"/>
      <point x="449" y="571"/>
      <point x="254" y="571" type="curve" smooth="yes"/>
      <point x="122" y="571" type="line" smooth="yes"/>
      <point x="107" y="571"/>
      <point x="92" y="559"/>
      <point x="89" y="544" type="curve" smooth="yes"/>
      <point x="61" y="413" type="line" smooth="yes"/>
      <point x="58" y="398"/>
      <point x="68" y="386"/>
      <point x="83" y="386" type="curve" smooth="yes"/>
      <point x="230" y="386" type="line" smooth="yes"/>
      <point x="279" y="386"/>
      <point x="305" y="361"/>
    </contour>
  </outline>
</glyph>
<glyph name="memhebrew" format="1">
  <advance width="719"/>
  <unicode hex="05DE"/>
  <outline>
    <contour>
      <point x="124" y="571" type="line" smooth="yes" name="hr00"/>
      <point x="109" y="571"/>
      <point x="94" y="559"/>
      <point x="91" y="544" type="curve" smooth="yes"/>
      <point x="65" y="423" type="line" smooth="yes"/>
      <point x="62" y="408"/>
      <point x="72" y="396"/>
      <point x="87" y="396" type="curve" smooth="yes"/>
      <point x="163" y="396" type="line"/>
      <point x="-26" y="31" type="line"/>
      <point x="-36" y="16"/>
      <point x="-27" y="0"/>
      <point x="-8" y="0" type="curve" smooth="yes"/>
      <point x="159" y="0" type="line" smooth="yes"/>
      <point x="186" y="0"/>
      <point x="198" y="19"/>
      <point x="201" y="25" type="curve" smooth="yes"/>
      <point x="387" y="396" type="line"/>
      <point x="403" y="396" type="line" smooth="yes"/>
      <point x="452" y="396"/>
      <point x="471" y="371"/>
      <point x="461" y="321" type="curve" smooth="yes"/>
      <point x="428" y="165" type="line"/>
      <point x="375" y="165" type="line" smooth="yes"/>
      <point x="360" y="165"/>
      <point x="345" y="153"/>
      <point x="342" y="138" type="curve" smooth="yes"/>
      <point x="318" y="27" type="line" smooth="yes"/>
      <point x="315" y="12"/>
      <point x="325" y="0"/>
      <point x="340" y="0" type="curve" smooth="yes"/>
      <point x="589" y="0" type="line" smooth="yes"/>
      <point x="604" y="0"/>
      <point x="618" y="12"/>
      <point x="621" y="27" type="curve" smooth="yes"/>
      <point x="685" y="327" type="line" smooth="yes"/>
      <point x="723" y="506"/>
      <point x="610" y="571"/>
      <point x="435" y="571" type="curve" smooth="yes"/>
    </contour>
  </outline>
</glyph>
<glyph name="nunhebrew" format="1">
  <advance width="454"/>
  <unicode hex="05E0"/>
  <outline>
    <contour>
      <point x="324" y="0" type="line" smooth="yes" name="hr00"/>
      <point x="339" y="0"/>
      <point x="353" y="12"/>
      <point x="356" y="27" type="curve" smooth="yes"/>
      <point x="420" y="327" type="line" smooth="yes"/>
      <point x="460" y="516"/>
      <point x="347" y="581"/>
      <point x="162" y="581" type="curve" smooth="yes"/>
      <point x="129" y="581" type="line" smooth="yes"/>
      <point x="114" y="581"/>
      <point x="99" y="569"/>
      <point x="96" y="554" type="curve" smooth="yes"/>
      <point x="68" y="423" type="line" smooth="yes"/>
      <point x="65" y="408"/>
      <point x="75" y="396"/>
      <point x="90" y="396" type="curve" smooth="yes"/>
      <point x="128" y="396" type="line" smooth="yes"/>
      <point x="177" y="396"/>
      <point x="197" y="376"/>
      <point x="186" y="321" type="curve" smooth="yes"/>
      <point x="157" y="185" type="line"/>
      <point x="35" y="185" type="line" smooth="yes"/>
      <point x="20" y="185"/>
      <point x="5" y="173"/>
      <point x="2" y="158" type="curve" smooth="yes"/>
      <point x="-26" y="27" type="line" smooth="yes"/>
      <point x="-29" y="12"/>
      <point x="-19" y="0"/>
      <point x="-4" y="0" type="curve" smooth="yes"/>
    </contour>
  </outline>
</glyph>
<glyph name="pehebrew" format="1">
  <advance width="645"/>
  <unicode hex="05E4"/>
  <outline>
    <contour>
      <point x="424" y="336" type="curve" smooth="yes" name="hr00"/>
      <point x="421" y="316"/>
      <point x="414" y="283"/>
      <point x="408" y="263" type="curve" smooth="yes"/>
      <point x="393" y="203"/>
      <point x="361" y="180"/>
      <point x="312" y="180" type="curve" smooth="yes"/>
      <point x="45" y="180" type="line" smooth="yes"/>
      <point x="30" y="180"/>
      <point x="15" y="168"/>
      <point x="12" y="153" type="curve" smooth="yes"/>
      <point x="-15" y="27" type="line" smooth="yes"/>
      <point x="-18" y="12"/>
      <point x="-8" y="0"/>
      <point x="7" y="0" type="curve" smooth="yes"/>
      <point x="290" y="0" type="line" smooth="yes"/>
      <point x="495" y="0"/>
      <point x="564" y="98"/>
      <point x="603" y="247" type="curve"/>
      <point x="609" y="267"/>
      <point x="618" y="310"/>
      <point x="621" y="330" type="curve" smooth="yes"/>
      <point x="642" y="466"/>
      <point x="576" y="571"/>
      <point x="391" y="571" type="curve" smooth="yes"/>
      <point x="128" y="571" type="line" smooth="yes"/>
      <point x="113" y="571"/>
      <point x="98" y="559"/>
      <point x="95" y="544" type="curve" smooth="yes"/>
      <point x="65" y="403" type="line" smooth="yes"/>
      <point x="32" y="247"/>
      <point x="136" y="209"/>
      <point x="232" y="209" type="curve" smooth="yes"/>
      <point x="245" y="209" type="line" smooth="yes"/>
      <point x="260" y="209"/>
      <point x="274" y="221"/>
      <point x="278" y="236" type="curve" smooth="yes"/>
      <point x="301" y="344" type="line" smooth="yes"/>
      <point x="304" y="359"/>
      <point x="294" y="371"/>
      <point x="279" y="371" type="curve" smooth="yes"/>
      <point x="272" y="371" type="line" smooth="yes"/>
      <point x="249" y="371"/>
      <point x="241" y="381"/>
      <point x="246" y="404" type="curve" smooth="yes"/>
      <point x="248" y="411" type="line"/>
      <point x="361" y="411" type="line" smooth="yes"/>
      <point x="410" y="411"/>
      <point x="432" y="386"/>
    </contour>
  </outline>
</glyph>
<glyph name="tavhebrew" format="1">
  <advance width="750"/>
  <unicode hex="05EA"/>
  <outline>
    <contour>
      <point x="124" y="571" type="line" smooth="yes" name="hr00"/>
      <point x="109" y="571"/>
      <point x="94" y="559"/>
      <point x="91" y="544" type="curve" smooth="yes"/>
      <point x="65" y="423" type="line" smooth="yes"/>
      <point x="62" y="408"/>
      <point x="72" y="396"/>
      <point x="87" y="396" type="curve" smooth="yes"/>
      <point x="141" y="396" type="line"/>
      <point x="92" y="165" type="line"/>
      <point x="38" y="165" type="line" smooth="yes"/>
      <point x="23" y="165"/>
      <point x="8" y="153"/>
      <point x="5" y="138" type="curve" smooth="yes"/>
      <point x="-19" y="27" type="line" smooth="yes"/>
      <point x="-22" y="12"/>
      <point x="-12" y="0"/>
      <point x="3" y="0" type="curve" smooth="yes"/>
      <point x="80" y="0" type="line"/>
      <point x="84" y="0" type="line"/>
      <point x="253" y="0" type="line" smooth="yes"/>
      <point x="268" y="0"/>
      <point x="282" y="12"/>
      <point x="285" y="27" type="curve" smooth="yes"/>
      <point x="364" y="396" type="line"/>
      <point x="434" y="396" type="line" smooth="yes"/>
      <point x="483" y="396"/>
      <point x="502" y="371"/>
      <point x="492" y="321" type="curve" smooth="yes"/>
      <point x="429" y="26" type="line" smooth="yes"/>
      <point x="426" y="11"/>
      <point x="436" y="0"/>
      <point x="451" y="0" type="curve" smooth="yes"/>
      <point x="620" y="0" type="line" smooth="yes"/>
      <point x="635" y="0"/>
      <point x="649" y="12"/>
      <point x="652" y="27" type="curve" smooth="yes"/>
      <point x="716" y="326" type="line" smooth="yes"/>
      <point x="754" y="505"/>
      <point x="642" y="571"/>
      <point x="467" y="571" type="curve" smooth="yes"/>
    </contour>
  </outline>
</glyph>
<glyph name="quotesinglbase" format="1">
  <advance width="314"/>
  <unicode hex="201A"/>
  <outline>
    <contour>
      <point x="-54" y="-51" type="line" smooth="yes" name="hr00"/>
      <point x="-58" y="-63"/>
      <point x="-48" y="-75"/>
      <point x="-37" y="-75" type="curve" smooth="yes"/>
      <point x="74" y="-75" type="line" smooth="yes"/>
      <point x="100" y="-75"/>
      <point x="115" y="-56"/>
      <point x="123" y="-43" type="curve" smooth="yes"/>
      <point x="270" y="199" type="line" smooth="yes"/>
      <point x="277" y="211"/>
      <point x="272" y="228"/>
      <point x="255" y="228" type="curve" smooth="yes"/>
      <point x="85" y="228" type="line" smooth="yes"/>
      <point x="58" y="228"/>
      <point x="41" y="207"/>
      <point x="34" y="189" type="curve" smooth="yes"/>
    </contour>
  </outline>
</glyph>
<glyph name="nineinferior" format="1">
  <advance width="360"/>
  <unicode hex="2089"/>
  <outline>
    <contour>
      <point x="-6" y="-131" type="line" smooth="yes" name="hr00"/>
      <point x="-14" y="-139"/>
      <point x="-18" y="-145"/>
      <point x="-20" y="-151" type="curve" smooth="yes"/>
      <point x="-22" y="-162"/>
      <point x="-15" y="-171"/>
      <point x="-4" y="-171" type="curve" smooth="yes"/>
      <point x="81" y="-171" type="line" smooth="yes"/>
      <point x="92" y="-171"/>
      <point x="105" y="-164"/>
      <point x="113" y="-156" type="curve" smooth="yes"/>
      <point x="219" y="-49" type="line" smooth="yes"/>
      <point x="236" y="-32"/>
      <point x="280" y="11"/>
      <point x="289" y="54" type="curve" smooth="yes"/>
      <point x="306" y="136"/>
      <point x="226" y="184"/>
      <point x="142" y="184" type="curve" smooth="yes"/>
      <point x="38" y="184"/>
      <point x="-19" y="136"/>
      <point x="-35" y="60" type="curve" smooth="yes"/>
      <point x="-52" y="-20"/>
      <point x="16" y="-53"/>
      <point x="59" y="-64" type="curve"/>
    </contour>
    <contour>
      <point x="92" y="56" type="curve" smooth="yes"/>
      <point x="96" y="75"/>
      <point x="114" y="86"/>
      <point x="131" y="86" type="curve" smooth="yes"/>
      <point x="148" y="86"/>
      <point x="159" y="75"/>
      <point x="155" y="56" type="curve" smooth="yes"/>
      <point x="151" y="37"/>
      <point x="135" y="27"/>
      <point x="118" y="27" type="curve" smooth="yes"/>
      <point x="100" y="27"/>
      <point x="88" y="37"/>
    </contour>
  </outline>
</glyph>
<glyph name="minus" format="1">
  <advance width="643"/>
  <unicode hex="2212"/>
  <outline>
    <contour>
      <point x="97" y="382" type="line" smooth="yes" name="hr00"/>
      <point x="82" y="382"/>
      <point x="67" y="370"/>
      <point x="64" y="355" type="curve" smooth="yes"/>
      <point x="41" y="246" type="line" smooth="yes"/>
      <point x="38" y="231"/>
      <point x="47" y="219"/>
      <point x="62" y="219" type="curve" smooth="yes"/>
      <point x="546" y="219" type="line" smooth="yes"/>
      <point x="561" y="219"/>
      <point x="576" y="231"/>
      <point x="579" y="246" type="curve" smooth="yes"/>
      <point x="602" y="355" type="line" smooth="yes"/>
      <point x="605" y="370"/>
      <point x="596" y="382"/>
      <point x="581" y="382" type="curve" smooth="yes"/>
    </contour>
  </outline>
</glyph>
<glyph name="Caron" format="1">
  <advance width="470"/>
  <unicode hex="F6CA"/>
  <outline>
    <contour>
      <point x="282" y="750" type="line" smooth="yes" name="hr00"/>
      <point x="297" y="750"/>
      <point x="307" y="755"/>
      <point x="323" y="769" type="curve" smooth="yes"/>
      <point x="461" y="891" type="line" smooth="yes"/>
      <point x="465" y="894"/>
      <point x="468" y="899"/>
      <point x="469" y="904" type="curve" smooth="yes"/>
      <point x="471" y="914"/>
      <point x="466" y="920"/>
      <point x="456" y="920" type="curve" smooth="yes"/>
      <point x="377" y="920" type="line" smooth="yes"/>
      <point x="364" y="920"/>
      <point x="351" y="920"/>
      <point x="336" y="913" type="curve" smooth="yes"/>
      <point x="235" y="871" type="line"/>
      <point x="152" y="913" type="line" smooth="yes"/>
      <point x="139" y="920"/>
      <point x="126" y="920"/>
      <point x="113" y="920" type="curve" smooth="yes"/>
      <point x="50" y="920" type="line" smooth="yes"/>
      <point x="40" y="920"/>
      <point x="33" y="914"/>
      <point x="31" y="904" type="curve" smooth="yes"/>
      <point x="30" y="899"/>
      <point x="31" y="894"/>
      <point x="33" y="891" type="curve" smooth="yes"/>
      <point x="119" y="769" type="line" smooth="yes"/>
      <point x="129" y="755"/>
      <point x="137" y="750"/>
      <point x="152" y="750" type="curve" smooth="yes"/>
    </contour>
  </outline>
</glyph>
<glyph name="shinshindothebrew" format="1">
  <advance width="873"/>
  <unicode hex="FB2A"/>
  <outline>
    <contour>
      <point x="816" y="611" type="line" smooth="yes" name="hr00"/>
      <point x="831" y="611"/>
      <point x="846" y="623"/>
      <point x="849" y="638" type="curve" smooth="yes"/>
      <point x="857" y="673" type="line" smooth="yes"/>
      <point x="860" y="688"/>
      <point x="850" y="700"/>
      <point x="835" y="700" type="curve" smooth="yes"/>
      <point x="800" y="700" type="line" smooth="yes"/>
      <point x="785" y="700"/>
      <point x="771" y="688"/>
      <point x="768" y="673" type="curve" smooth="yes"/>
      <point x="760" y="638" type="line" smooth="yes"/>
      <point x="757" y="623"/>
      <point x="766" y="611"/>
      <point x="781" y="611" type="curve" smooth="yes"/>
    </contour>
    <component base="shinhebrew"/>
  </outline>
</glyph>
<glyph name="betdageshhebrew" format="1">
  <advance width="597"/>
  <unicode hex="FB31"/>
  <outline>
    <contour>
      <point x="165" y="241" type="line" smooth="yes" name="hr00"/>
      <point x="180" y="241"/>
      <point x="194" y="253"/>
      <point x="197" y="268" type="curve" smooth="yes"/>
      <point x="205" y="303" type="line" smooth="yes"/>
      <point x="208" y="318"/>
      <point x="199" y="330"/>
      <point x="184" y="330" type="curve" smooth="yes"/>
      <point x="149" y="330" type="line" smooth="yes"/>
      <point x="134" y="330"/>
      <point x="119" y="318"/>
      <point x="116" y="303" type="curve" smooth="yes"/>
      <point x="108" y="268" type="line" smooth="yes"/>
      <point x="105" y="253"/>
      <point x="115" y="241"/>
      <point x="130" y="241" type="curve" smooth="yes"/>
    </contour>
    <component base="bethebrew"/>
  </outline>
</glyph>
<glyph name="daletdageshhebrew" format="1">
  <advance width="546"/>
  <unicode hex="FB33"/>
  <outline>
    <contour>
      <point x="127" y="241" type="line" smooth="yes" name="hr00"/>
      <point x="142" y="241"/>
      <point x="156" y="253"/>
      <point x="159" y="268" type="curve" smooth="yes"/>
      <point x="167" y="303" type="line" smooth="yes"/>
      <point x="170" y="318"/>
      <point x="161" y="330"/>
      <point x="146" y="330" type="curve" smooth="yes"/>
      <point x="111" y="330" type="line" smooth="yes"/>
      <point x="96" y="330"/>
      <point x="81" y="318"/>
      <point x="78" y="303" type="curve" smooth="yes"/>
      <point x="70" y="268" type="line" smooth="yes"/>
      <point x="67" y="253"/>
      <point x="77" y="241"/>
      <point x="92" y="241" type="curve" smooth="yes"/>
    </contour>
    <component base="dalethebrew"/>
  </outline>
</glyph>
<glyph name="zayindageshhebrew" format="1">
  <advance width="498"/>
  <unicode hex="FB36"/>
  <outline>
    <contour>
      <point x="99" y="241" type="line" smooth="yes" name="hr00"/>
      <point x="114" y="241"/>
      <point x="128" y="253"/>
      <point x="131" y="268" type="curve" smooth="yes"/>
      <point x="139" y="303" type="line" smooth="yes"/>
      <point x="142" y="318"/>
      <point x="133" y="330"/>
      <point x="118" y="330" type="curve" smooth="yes"/>
      <point x="83" y="330" type="line" smooth="yes"/>
      <point x="68" y="330"/>
      <point x="53" y="318"/>
      <point x="50" y="303" type="curve" smooth="yes"/>
      <point x="42" y="268" type="line" smooth="yes"/>
      <point x="39" y="253"/>
      <point x="49" y="241"/>
      <point x="64" y="241" type="curve" smooth="yes"/>
    </contour>
    <component base="zayinhebrew"/>
  </outline>
</glyph>
<glyph name="kafdageshhebrew" format="1">
  <advance width="537"/>
  <unicode hex="FB3B"/>
  <outline>
    <contour>
      <point x="171" y="240" type="line" smooth="yes" name="hr00"/>
      <point x="186" y="240"/>
      <point x="200" y="252"/>
      <point x="203" y="267" type="curve" smooth="yes"/>
      <point x="211" y="302" type="line" smooth="yes"/>
      <point x="214" y="317"/>
      <point x="204" y="329"/>
      <point x="189" y="329" type="curve" smooth="yes"/>
      <point x="154" y="329" type="line" smooth="yes"/>
      <point x="139" y="329"/>
      <point x="125" y="317"/>
      <point x="122" y="302" type="curve" smooth="yes"/>
      <point x="114" y="267" type="line" smooth="yes"/>
      <point x="111" y="252"/>
      <point x="121" y="240"/>
      <point x="136" y="240" type="curve" smooth="yes"/>
    </contour>
    <component base="kafhebrew"/>
  </outline>
</glyph>
<glyph name="lameddageshhebrew" format="1">
  <advance width="555"/>
  <unicode hex="FB3C"/>
  <outline>
    <contour>
      <point x="161" y="240" type="line" smooth="yes" name="hr00"/>
      <point x="176" y="240"/>
      <point x="190" y="252"/>
      <point x="193" y="267" type="curve" smooth="yes"/>
      <point x="201" y="302" type="line" smooth="yes"/>
      <point x="204" y="317"/>
      <point x="194" y="329"/>
      <point x="179" y="329" type="curve" smooth="yes"/>
      <point x="144" y="329" type="line" smooth="yes"/>
      <point x="129" y="329"/>
      <point x="115" y="317"/>
      <point x="112" y="302" type="curve" smooth="yes"/>
      <point x="104" y="267" type="line" smooth="yes"/>
      <point x="101" y="252"/>
      <point x="111" y="240"/>
      <point x="126" y="240" type="curve" smooth="yes"/>
    </contour>
    <component base="lamedhebrew"/>
  </outline>
</glyph>
<glyph name="nundageshhebrew" format="1">
  <advance width="454"/>
  <unicode hex="FB40"/>
  <outline>
    <contour>
      <point x="114" y="240" type="line" smooth="yes" name="hr00"/>
      <point x="129" y="240"/>
      <point x="143" y="252"/>
      <point x="146" y="267" type="curve" smooth="yes"/>
      <point x="154" y="302" type="line" smooth="yes"/>
      <point x="157" y="317"/>
      <point x="147" y="329"/>
      <point x="132" y="329" type="curve" smooth="yes"/>
      <point x="97" y="329" type="line" smooth="yes"/>
      <point x="82" y="329"/>
      <point x="68" y="317"/>
      <point x="65" y="302" type="curve" smooth="yes"/>
      <point x="57" y="267" type="line" smooth="yes"/>
      <point x="54" y="252"/>
      <point x="64" y="240"/>
      <point x="79" y="240" type="curve" smooth="yes"/>
    </contour>
    <component base="nunhebrew"/>
  </outline>
</glyph>
<glyph name="pedageshhebrew" format="1">
  <advance width="645"/>
  <unicode hex="FB44"/>
  <outline>
    <contour>
      <point x="358" y="240" type="line" smooth="yes" name="hr00"/>
      <point x="373" y="240"/>
      <point x="387" y="252"/>
      <point x="390" y="267" type="curve" smooth="yes"/>
      <point x="398" y="302" type="line" smooth="yes"/>
      <point x="401" y="317"/>
      <point x="391" y="329"/>
      <point x="376" y="329" type="curve" smooth="yes"/>
      <point x="341" y="329" type="line" smooth="yes"/>
      <point x="326" y="329"/>
      <point x="312" y="317"/>
      <point x="309" y="302" type="curve" smooth="yes"/>
      <point x="301" y="267" type="line" smooth="yes"/>
      <point x="298" y="252"/>
      <point x="308" y="240"/>
      <point x="323" y="240" type="curve" smooth="yes"/>
    </contour>
    <component base="pehebrew"/>
  </outline>
</glyph>
<glyph name="shindageshhebrew" format="1">
  <advance width="873"/>
  <unicode hex="FB49"/>
  <outline>
    <contour>
      <point x="574" y="240" type="line" smooth="yes" name="hr00"/>
      <point x="589" y="240"/>
      <point x="603" y="252"/>
      <point x="606" y="267" type="curve" smooth="yes"/>
      <point x="614" y="302" type="line" smooth="yes"/>
      <point x="617" y="317"/>
      <point x="607" y="329"/>
      <point x="592" y="329" type="curve" smooth="yes"/>
      <point x="557" y="329" type="line" smooth="yes"/>
      <point x="542" y="329"/>
      <point x="528" y="317"/>
      <point x="525" y="302" type="curve" smooth="yes"/>
      <point x="517" y="267" type="line" smooth="yes"/>
      <point x="514" y="252"/>
      <point x="524" y="240"/>
      <point x="539" y="240" type="curve" smooth="yes"/>
    </contour>
    <component base="shinhebrew"/>
  </outline>
</glyph>
<glyph name="Ring" format="1">
  <advance width="236"/>
  <outline>
    <contour>
      <point x="103" y="835" type="curve" smooth="yes" name="hr00"/>
      <point x="107" y="852"/>
      <point x="122" y="865"/>
      <point x="139" y="865" type="curve" smooth="yes"/>
      <point x="156" y="865"/>
      <point x="167" y="852"/>
      <point x="163" y="835" type="curve" smooth="yes"/>
      <point x="159" y="818"/>
      <point x="144" y="805"/>
      <point x="127" y="805" type="curve" smooth="yes"/>
      <point x="110" y="805"/>
      <point x="99" y="818"/>
    </contour>
    <contour>
      <point x="33" y="835" type="curve" smooth="yes"/>
      <point x="21" y="780"/>
      <point x="58" y="740"/>
      <point x="113" y="740" type="curve" smooth="yes"/>
      <point x="168" y="740"/>
      <point x="221" y="780"/>
      <point x="233" y="835" type="curve" smooth="yes"/>
      <point x="245" y="890"/>
      <point x="208" y="930"/>
      <point x="153" y="930" type="curve" smooth="yes"/>
      <point x="98" y="930"/>
      <point x="45" y="890"/>
    </contour>
  </outline>
</glyph>
